<svg width="171" height="54" viewBox="0 0 171 54" fill="none" xmlns="http://www.w3.org/2000/svg">
<path d="M166.964 0H3.03571C1.35914 0 0 1.34315 0 3V51C0 52.6569 1.35914 54 3.03571 54H166.964C168.641 54 170 52.6569 170 51V3C170 1.34315 168.641 0 166.964 0Z" fill="#353535"/>
<path d="M33.9513 31.9415C33.0508 30.6724 32.6008 29.2426 32.6008 27.6532C32.6008 26.2045 33.0255 24.8773 33.8731 23.6724C34.3298 23.0185 35.0737 22.2623 36.1047 21.4032C35.4262 20.5829 34.7477 19.9419 34.0687 19.4803C32.8421 18.6471 31.4522 18.2305 29.8996 18.2305C28.9732 18.2305 27.8442 18.4483 26.5135 18.8845C25.2346 19.3204 24.3014 19.5385 23.7144 19.5385C23.2706 19.5385 22.3704 19.3464 21.0132 18.9616C19.643 18.5769 18.4882 18.3847 17.5486 18.3847C15.3041 18.3847 13.4511 19.3079 11.9897 21.1539C10.5151 23.0257 9.77766 25.423 9.77766 28.3461C9.77766 31.4487 10.737 34.6727 12.6551 38.0189C14.5993 41.3393 16.5633 42.9998 18.5468 42.9998C19.2123 42.9998 20.0736 42.7818 21.1304 42.3459C22.1877 41.9232 23.114 41.7114 23.9102 41.7114C24.7581 41.7114 25.7434 41.9164 26.8656 42.3265C28.0531 42.7364 28.9667 42.9415 29.606 42.9415C31.2762 42.9415 32.9533 41.6851 34.6365 39.1724C35.7324 37.5699 36.535 35.9674 37.0439 34.3648C35.8825 34.0184 34.8517 33.2107 33.9513 31.9415Z" fill="white"/>
<path d="M27.2945 17.0768C28.1169 16.2691 28.7236 15.3844 29.1152 14.423C29.4934 13.4615 29.6822 12.5896 29.6822 11.8075C29.6822 11.7563 29.6795 11.6921 29.6724 11.6152C29.6665 11.5382 29.663 11.4743 29.663 11.423C29.6499 11.3845 29.6337 11.3139 29.6141 11.2115C29.5947 11.109 29.5785 11.0385 29.5651 11C27.2685 11.5259 25.6374 12.4746 24.6716 13.8464C23.6933 15.231 23.184 16.8783 23.1449 18.7885C24.0192 18.7115 24.6975 18.6027 25.1805 18.4616C25.8857 18.2308 26.5895 17.7691 27.2945 17.0768Z" fill="white"/>
<path d="M49.7814 19.876C50.4369 20.0347 50.9499 20.324 51.3204 20.744C51.7003 21.164 51.8904 21.668 51.8904 22.256C51.8904 22.8253 51.7099 23.3247 51.3489 23.754C50.9878 24.1833 50.5081 24.5147 49.9096 24.748C49.3111 24.972 48.6604 25.084 47.9574 25.084C47.2924 25.084 46.6369 24.9813 45.9909 24.776C45.3544 24.5613 44.7796 24.244 44.2666 23.824L44.6514 23.082C45.0883 23.446 45.5871 23.726 46.1476 23.922C46.7081 24.1087 47.2734 24.202 47.8434 24.202C48.3849 24.202 48.8836 24.118 49.3396 23.95C49.7956 23.782 50.1566 23.544 50.4226 23.236C50.6981 22.9187 50.8359 22.5453 50.8359 22.116C50.8359 21.5467 50.6079 21.108 50.1519 20.8C49.6959 20.492 49.0546 20.338 48.2281 20.338H46.0906V19.498H48.1711C48.8741 19.498 49.4203 19.3533 49.8099 19.064C50.2089 18.7653 50.4084 18.3547 50.4084 17.832C50.4084 17.2533 50.1566 16.8007 49.6531 16.474C49.1496 16.138 48.5179 15.97 47.7579 15.97C47.2828 15.97 46.8031 16.04 46.3186 16.18C45.8341 16.3107 45.3733 16.5113 44.9364 16.782L44.5801 15.928C45.5681 15.3493 46.6369 15.06 47.7864 15.06C48.4609 15.06 49.0783 15.1673 49.6389 15.382C50.1994 15.5967 50.6411 15.9047 50.9641 16.306C51.2966 16.7073 51.4629 17.1787 51.4629 17.72C51.4629 18.2427 51.3156 18.6953 51.0211 19.078C50.7266 19.4513 50.3134 19.7173 49.7814 19.876ZM56.8457 17.58C57.8242 17.58 58.5747 17.8227 59.0972 18.308C59.6197 18.784 59.8809 19.4933 59.8809 20.436V25H58.9119V23.852C58.6839 24.2347 58.3467 24.5333 57.9002 24.748C57.4632 24.9627 56.9407 25.07 56.3327 25.07C55.4967 25.07 54.8317 24.874 54.3377 24.482C53.8437 24.09 53.5967 23.572 53.5967 22.928C53.5967 22.3027 53.8247 21.7987 54.2807 21.416C54.7462 21.0333 55.4825 20.842 56.4895 20.842H58.8692V20.394C58.8692 19.7593 58.6887 19.2787 58.3277 18.952C57.9667 18.616 57.4394 18.448 56.7459 18.448C56.2709 18.448 55.8149 18.5273 55.3779 18.686C54.941 18.8353 54.5657 19.0453 54.2522 19.316L53.7962 18.574C54.1762 18.2567 54.6322 18.014 55.1642 17.846C55.6962 17.6687 56.2567 17.58 56.8457 17.58ZM56.4895 24.286C57.0595 24.286 57.5487 24.16 57.9572 23.908C58.3657 23.6467 58.6697 23.2733 58.8692 22.788V21.584H56.518C55.2355 21.584 54.5942 22.0227 54.5942 22.9C54.5942 23.3293 54.7604 23.67 55.0929 23.922C55.4255 24.1647 55.891 24.286 56.4895 24.286ZM67.348 21.192C68.3646 21.4253 68.8728 22.0273 68.8728 22.998C68.8728 23.642 68.6305 24.1367 68.146 24.482C67.6615 24.8273 66.9396 25 65.9801 25H62.5743V17.636H65.8803C66.7353 17.636 67.4051 17.7993 67.8895 18.126C68.3741 18.4527 68.6163 18.9193 68.6163 19.526C68.6163 19.9273 68.5023 20.2727 68.2743 20.562C68.0558 20.842 67.747 21.052 67.348 21.192ZM63.5576 20.912H65.8091C66.3885 20.912 66.8303 20.8047 67.1343 20.59C67.4478 20.3753 67.6046 20.0627 67.6046 19.652C67.6046 19.2413 67.4478 18.9333 67.1343 18.728C66.8303 18.5227 66.3885 18.42 65.8091 18.42H63.5576V20.912ZM65.9373 24.216C66.5833 24.216 67.0678 24.1133 67.3908 23.908C67.7138 23.7027 67.8753 23.3807 67.8753 22.942C67.8753 22.5033 67.728 22.1813 67.4336 21.976C67.1391 21.7613 66.6735 21.654 66.0371 21.654H63.5576V24.216H65.9373ZM73.8232 17.58C74.8017 17.58 75.5522 17.8227 76.0747 18.308C76.5972 18.784 76.8585 19.4933 76.8585 20.436V25H75.8895V23.852C75.6615 24.2347 75.3242 24.5333 74.8777 24.748C74.4407 24.9627 73.9182 25.07 73.3102 25.07C72.4742 25.07 71.8092 24.874 71.3153 24.482C70.8212 24.09 70.5742 23.572 70.5742 22.928C70.5742 22.3027 70.8022 21.7987 71.2582 21.416C71.7237 21.0333 72.4599 20.842 73.467 20.842H75.8467V20.394C75.8467 19.7593 75.6662 19.2787 75.3052 18.952C74.9442 18.616 74.417 18.448 73.7235 18.448C73.2485 18.448 72.7925 18.5273 72.3555 18.686C71.9184 18.8353 71.5433 19.0453 71.2297 19.316L70.7737 18.574C71.1537 18.2567 71.6097 18.014 72.1417 17.846C72.6737 17.6687 73.2342 17.58 73.8232 17.58ZM73.467 24.286C74.037 24.286 74.5262 24.16 74.9347 23.908C75.3432 23.6467 75.6472 23.2733 75.8467 22.788V21.584H73.4955C72.213 21.584 71.5717 22.0227 71.5717 22.9C71.5717 23.3293 71.738 23.67 72.0705 23.922C72.4029 24.1647 72.8685 24.286 73.467 24.286ZM79.5518 17.636H80.5636V20.898H85.2803V17.636H86.2921V25H85.2803V21.752H80.5636V25H79.5518V17.636ZM94.4403 18.518H91.6046V25H90.5928V18.518H87.7571V17.636H94.4403V18.518ZM98.4824 17.58C99.4609 17.58 100.211 17.8227 100.734 18.308C101.256 18.784 101.518 19.4933 101.518 20.436V25H100.549V23.852C100.321 24.2347 99.9834 24.5333 99.5369 24.748C99.0999 24.9627 98.5774 25.07 97.9694 25.07C97.1334 25.07 96.4684 24.874 95.9744 24.482C95.4804 24.09 95.2334 23.572 95.2334 22.928C95.2334 22.3027 95.4614 21.7987 95.9174 21.416C96.3829 21.0333 97.1191 20.842 98.1261 20.842H100.506V20.394C100.506 19.7593 100.325 19.2787 99.9644 18.952C99.6034 18.616 99.0762 18.448 98.3826 18.448C97.9077 18.448 97.4517 18.5273 97.0146 18.686C96.5776 18.8353 96.2024 19.0453 95.8889 19.316L95.4329 18.574C95.8129 18.2567 96.2689 18.014 96.8009 17.846C97.3329 17.6687 97.8934 17.58 98.4824 17.58ZM98.1261 24.286C98.6961 24.286 99.1854 24.16 99.5939 23.908C100.002 23.6467 100.306 23.2733 100.506 22.788V21.584H98.1546C96.8721 21.584 96.2309 22.0227 96.2309 22.9C96.2309 23.3293 96.3972 23.67 96.7296 23.922C97.0621 24.1647 97.5276 24.286 98.1261 24.286ZM110.781 21.724H109.156V25H108.144V21.724H106.52L104.226 25H103.014L105.708 21.206L103.228 17.636H104.325L106.52 20.87H108.144V17.636H109.156V20.87H110.781L112.989 17.636H114.087L111.607 21.22L114.3 25H113.089L110.781 21.724ZM121.922 17.636L118.174 25.882C117.871 26.5727 117.519 27.0627 117.12 27.352C116.721 27.6413 116.241 27.786 115.68 27.786C115.32 27.786 114.982 27.73 114.669 27.618C114.355 27.506 114.084 27.338 113.856 27.114L114.327 26.372C114.707 26.7453 115.163 26.932 115.695 26.932C116.037 26.932 116.327 26.8387 116.564 26.652C116.811 26.4653 117.039 26.148 117.248 25.7L117.576 24.986L114.227 17.636H115.281L118.103 23.894L120.924 17.636H121.922ZM123.499 17.636H124.51V23.488L129.512 17.636H130.41V25H129.398V19.148L124.411 25H123.499V17.636ZM126.904 16.572C126.258 16.572 125.745 16.4133 125.365 16.096C124.986 15.7787 124.79 15.3307 124.781 14.752H125.508C125.517 15.116 125.65 15.41 125.907 15.634C126.163 15.8487 126.496 15.956 126.904 15.956C127.313 15.956 127.645 15.8487 127.902 15.634C128.168 15.41 128.306 15.116 128.315 14.752H129.042C129.033 15.3307 128.833 15.7787 128.443 16.096C128.064 16.4133 127.551 16.572 126.904 16.572ZM138.582 18.518H135.747V25H134.735V18.518H131.899V17.636H138.582V18.518ZM146.252 21.626H139.982C140.039 22.3913 140.338 23.012 140.88 23.488C141.421 23.9547 142.105 24.188 142.932 24.188C143.397 24.188 143.824 24.1087 144.214 23.95C144.604 23.782 144.941 23.5393 145.226 23.222L145.796 23.866C145.463 24.258 145.046 24.5567 144.542 24.762C144.048 24.9673 143.502 25.07 142.903 25.07C142.134 25.07 141.45 24.9113 140.851 24.594C140.262 24.2673 139.802 23.8193 139.469 23.25C139.136 22.6807 138.97 22.0367 138.97 21.318C138.97 20.5993 139.127 19.9553 139.44 19.386C139.763 18.8167 140.201 18.3733 140.751 18.056C141.312 17.7387 141.939 17.58 142.632 17.58C143.325 17.58 143.948 17.7387 144.499 18.056C145.05 18.3733 145.482 18.8167 145.796 19.386C146.109 19.946 146.266 20.59 146.266 21.318L146.252 21.626ZM142.632 18.434C141.911 18.434 141.302 18.6627 140.808 19.12C140.324 19.568 140.048 20.156 139.982 20.884H145.297C145.231 20.156 144.95 19.568 144.456 19.12C143.972 18.6627 143.364 18.434 142.632 18.434ZM157.009 21.192C158.025 21.4253 158.533 22.0273 158.533 22.998C158.533 23.642 158.291 24.1367 157.807 24.482C157.322 24.8273 156.6 25 155.641 25H152.235V17.636H155.541C156.396 17.636 157.066 17.7993 157.55 18.126C158.035 18.4527 158.277 18.9193 158.277 19.526C158.277 19.9273 158.163 20.2727 157.935 20.562C157.717 20.842 157.408 21.052 157.009 21.192ZM153.218 20.912H155.47C156.05 20.912 156.491 20.8047 156.795 20.59C157.108 20.3753 157.265 20.0627 157.265 19.652C157.265 19.2413 157.108 18.9333 156.795 18.728C156.491 18.5227 156.05 18.42 155.47 18.42H153.218V20.912ZM155.598 24.216C156.244 24.216 156.729 24.1133 157.051 23.908C157.375 23.7027 157.536 23.3807 157.536 22.942C157.536 22.5033 157.389 22.1813 157.094 21.976C156.8 21.7613 156.335 21.654 155.698 21.654H153.218V24.216H155.598Z" fill="white"/>
<path d="M51.6196 38.5499H46.3186L45.2214 40.9999H43.7536L48.2709 31.1999H49.6816L54.2131 40.9999H52.7169L51.6196 38.5499ZM51.1209 37.4299L48.9691 32.6279L46.8174 37.4299H51.1209ZM59.5059 33.5099C60.2374 33.5099 60.8929 33.6686 61.4724 33.9859C62.0519 34.3032 62.5032 34.7466 62.8261 35.3159C63.1587 35.8852 63.3249 36.5432 63.3249 37.2899C63.3249 38.0366 63.1587 38.6992 62.8261 39.2779C62.5032 39.8472 62.0519 40.2906 61.4724 40.6079C60.8929 40.9252 60.2374 41.0839 59.5059 41.0839C58.9644 41.0839 58.4656 40.9812 58.0096 40.7759C57.5631 40.5706 57.1831 40.2719 56.8696 39.8799V43.7159H55.5016V33.5799H56.8126V34.7559C57.1167 34.3452 57.5014 34.0372 57.9669 33.8319C58.4324 33.6172 58.9454 33.5099 59.5059 33.5099ZM59.3919 39.9079C59.8764 39.9079 60.3087 39.8006 60.6886 39.5859C61.0782 39.3619 61.3821 39.0539 61.6006 38.6619C61.8286 38.2606 61.9426 37.8032 61.9426 37.2899C61.9426 36.7766 61.8286 36.3239 61.6006 35.9319C61.3821 35.5306 61.0782 35.2226 60.6886 35.0079C60.3087 34.7932 59.8764 34.6859 59.3919 34.6859C58.9169 34.6859 58.4847 34.7979 58.0951 35.0219C57.7152 35.2366 57.4111 35.5399 57.1831 35.9319C56.9646 36.3239 56.8554 36.7766 56.8554 37.2899C56.8554 37.8032 56.9646 38.2606 57.1831 38.6619C57.4017 39.0539 57.7056 39.3619 58.0951 39.5859C58.4847 39.8006 58.9169 39.9079 59.3919 39.9079ZM69.2193 33.5099C69.9507 33.5099 70.6062 33.6686 71.1858 33.9859C71.7653 34.3032 72.2165 34.7466 72.5396 35.3159C72.872 35.8852 73.0383 36.5432 73.0383 37.2899C73.0383 38.0366 72.872 38.6992 72.5396 39.2779C72.2165 39.8472 71.7653 40.2906 71.1858 40.6079C70.6062 40.9252 69.9507 41.0839 69.2193 41.0839C68.6778 41.0839 68.1791 40.9812 67.7231 40.7759C67.2765 40.5706 66.8966 40.2719 66.5831 39.8799V43.7159H65.2151V33.5799H66.5261V34.7559C66.83 34.3452 67.2147 34.0372 67.6803 33.8319C68.1458 33.6172 68.6588 33.5099 69.2193 33.5099ZM69.1053 39.9079C69.5898 39.9079 70.022 39.8006 70.4021 39.5859C70.7915 39.3619 71.0955 39.0539 71.3141 38.6619C71.5421 38.2606 71.6561 37.8032 71.6561 37.2899C71.6561 36.7766 71.5421 36.3239 71.3141 35.9319C71.0955 35.5306 70.7915 35.2226 70.4021 35.0079C70.022 34.7932 69.5898 34.6859 69.1053 34.6859C68.6303 34.6859 68.198 34.7979 67.8086 35.0219C67.4285 35.2366 67.1246 35.5399 66.8966 35.9319C66.678 36.3239 66.5688 36.7766 66.5688 37.2899C66.5688 37.8032 66.678 38.2606 66.8966 38.6619C67.115 39.0539 67.419 39.3619 67.8086 39.5859C68.198 39.8006 68.6303 39.9079 69.1053 39.9079ZM81.8618 41.1119C81.1113 41.1119 80.3846 40.9999 79.6816 40.7759C78.9881 40.5426 78.4418 40.2439 78.0428 39.8799L78.5701 38.7879C78.95 39.1239 79.4345 39.3992 80.0236 39.6139C80.6221 39.8192 81.2348 39.9219 81.8618 39.9219C82.6883 39.9219 83.3058 39.7866 83.7143 39.5159C84.1228 39.2359 84.3271 38.8672 84.3271 38.4099C84.3271 38.0739 84.2131 37.8032 83.9851 37.5979C83.7665 37.3832 83.4911 37.2199 83.1586 37.1079C82.8356 36.9959 82.3748 36.8699 81.7763 36.7299C81.0258 36.5526 80.4178 36.3752 79.9523 36.1979C79.4963 36.0206 79.1021 35.7499 78.7696 35.3859C78.4466 35.0126 78.2851 34.5132 78.2851 33.8879C78.2851 33.3652 78.4228 32.8939 78.6983 32.4739C78.9833 32.0539 79.4108 31.7179 79.9808 31.4659C80.5508 31.2139 81.2585 31.0879 82.1041 31.0879C82.6931 31.0879 83.2726 31.1626 83.8426 31.3119C84.4126 31.4612 84.9018 31.6759 85.3103 31.9559L84.8401 33.0759C84.422 32.8146 83.9756 32.6186 83.5006 32.4879C83.0255 32.3479 82.5601 32.2779 82.1041 32.2779C81.2966 32.2779 80.6885 32.4226 80.2801 32.7119C79.8811 33.0012 79.6816 33.3746 79.6816 33.8319C79.6816 34.1679 79.7956 34.4432 80.0236 34.6579C80.2516 34.8632 80.5318 35.0266 80.8643 35.1479C81.2063 35.2599 81.6671 35.3812 82.2466 35.5119C82.997 35.6892 83.6003 35.8666 84.0563 36.0439C84.5123 36.2212 84.9018 36.4919 85.2248 36.8559C85.5573 37.2199 85.7236 37.7099 85.7236 38.3259C85.7236 38.8392 85.5811 39.3106 85.2961 39.7399C85.0111 40.1599 84.5788 40.4959 83.9993 40.7479C83.4198 40.9906 82.7073 41.1119 81.8618 41.1119ZM91.8524 40.5659C91.6529 40.7339 91.406 40.8646 91.1114 40.9579C90.8169 41.0419 90.5129 41.0839 90.1994 41.0839C89.4394 41.0839 88.8504 40.8832 88.4324 40.4819C88.0144 40.0806 87.8054 39.5066 87.8054 38.7599V34.6859H86.5229V33.5799H87.8054V31.9559H89.1734V33.5799H91.3394V34.6859H89.1734V38.7039C89.1734 39.1052 89.2731 39.4132 89.4726 39.6279C89.6817 39.8426 89.9762 39.9499 90.3561 39.9499C90.7742 39.9499 91.1304 39.8332 91.4249 39.5999L91.8524 40.5659ZM96.4906 41.0839C95.7401 41.0839 95.0656 40.9206 94.4671 40.5939C93.8686 40.2672 93.3983 39.8192 93.0563 39.2499C92.7238 38.6712 92.5576 38.0179 92.5576 37.2899C92.5576 36.5619 92.7238 35.9132 93.0563 35.3439C93.3983 34.7652 93.8686 34.3172 94.4671 33.9999C95.0656 33.6732 95.7401 33.5099 96.4906 33.5099C97.241 33.5099 97.9108 33.6732 98.4998 33.9999C99.0983 34.3172 99.5638 34.7652 99.8963 35.3439C100.238 35.9132 100.409 36.5619 100.409 37.2899C100.409 38.0179 100.238 38.6712 99.8963 39.2499C99.5638 39.8192 99.0983 40.2672 98.4998 40.5939C97.9108 40.9206 97.241 41.0839 96.4906 41.0839ZM96.4906 39.9079C96.9751 39.9079 97.4073 39.8006 97.7873 39.5859C98.1768 39.3619 98.4808 39.0539 98.6993 38.6619C98.9178 38.2606 99.0271 37.8032 99.0271 37.2899C99.0271 36.7766 98.9178 36.3239 98.6993 35.9319C98.4808 35.5306 98.1768 35.2226 97.7873 35.0079C97.4073 34.7932 96.9751 34.6859 96.4906 34.6859C96.0061 34.6859 95.5691 34.7932 95.1796 35.0079C94.7996 35.2226 94.4956 35.5306 94.2676 35.9319C94.049 36.3239 93.9398 36.7766 93.9398 37.2899C93.9398 37.8032 94.049 38.2606 94.2676 38.6619C94.4956 39.0539 94.7996 39.3619 95.1796 39.5859C95.5691 39.8006 96.0061 39.9079 96.4906 39.9079ZM103.612 34.8259C103.85 34.3966 104.201 34.0699 104.666 33.8459C105.132 33.6219 105.697 33.5099 106.362 33.5099V34.8119C106.287 34.8026 106.182 34.7979 106.049 34.7979C105.308 34.7979 104.723 35.0172 104.296 35.4559C103.878 35.8852 103.669 36.5012 103.669 37.3039V40.9999H102.301V33.5799H103.612V34.8259ZM114.805 37.3319C114.805 37.4346 114.795 37.5699 114.777 37.7379H108.649C108.735 38.3912 109.024 38.9186 109.518 39.3199C110.021 39.7119 110.644 39.9079 111.385 39.9079C112.287 39.9079 113.014 39.6092 113.565 39.0119L114.321 39.8799C113.979 40.2719 113.551 40.5706 113.038 40.7759C112.534 40.9812 111.969 41.0839 111.342 41.0839C110.544 41.0839 109.836 40.9252 109.219 40.6079C108.601 40.2812 108.122 39.8286 107.78 39.2499C107.447 38.6712 107.281 38.0179 107.281 37.2899C107.281 36.5712 107.442 35.9226 107.766 35.3439C108.097 34.7652 108.549 34.3172 109.119 33.9999C109.699 33.6732 110.349 33.5099 111.072 33.5099C111.793 33.5099 112.435 33.6732 112.995 33.9999C113.565 34.3172 114.007 34.7652 114.321 35.3439C114.643 35.9226 114.805 36.5852 114.805 37.3319ZM111.072 34.6439C110.416 34.6439 109.864 34.8399 109.419 35.2319C108.981 35.6239 108.724 36.1372 108.649 36.7719H113.494C113.418 36.1466 113.156 35.6379 112.71 35.2459C112.273 34.8446 111.727 34.6439 111.072 34.6439Z" fill="white"/>
</svg>
