<svg width="152" height="152" viewBox="0 0 152 152" fill="none" xmlns="http://www.w3.org/2000/svg">
<path d="M76.002 96.4619C70.7222 96.4619 66.4268 100.757 66.4268 106.037C66.4268 111.317 70.7222 115.613 76.002 115.613C81.2817 115.613 85.5775 111.317 85.5775 106.037C85.5775 100.757 81.2817 96.4619 76.002 96.4619ZM76.002 111.16C73.1773 111.16 70.8792 108.862 70.8792 106.037C70.8792 103.212 73.1773 100.914 76.002 100.914C78.8269 100.914 81.125 103.212 81.125 106.037C81.125 108.862 78.8269 111.16 76.002 111.16Z" fill="#CDDCF3"/>
<path d="M32.1841 144.576H70.8076C72.0373 144.576 73.0338 143.579 73.0338 142.349C73.0338 141.12 72.0373 140.123 70.8076 140.123H32.1841C10.6884 140.123 -2.65453 116.654 8.45767 98.1722L52.2769 25.2982C63.049 7.38287 88.9823 7.42413 99.7285 25.2982L143.547 98.1725C154.619 116.587 141.395 140.123 119.821 140.123H81.1967C79.9669 140.123 78.9704 141.12 78.9704 142.349C78.9704 143.579 79.9669 144.576 81.1967 144.576H119.821C144.86 144.576 160.207 117.241 147.363 95.8783L103.544 23.0037C91.0408 2.20791 60.9373 2.25451 48.4608 23.0037L4.6419 95.878C-8.24418 117.31 7.23384 144.576 32.1841 144.576Z" fill="#CDDCF3"/>
<path d="M136.719 102.278L92.9001 29.4044C85.2281 16.6454 66.7602 16.6736 59.1052 29.4044L15.2859 102.279C7.37236 115.442 16.8235 132.156 32.184 132.156H119.821C135.178 132.156 144.635 115.445 136.719 102.278ZM19.102 104.573L62.9212 31.6989C68.8602 21.8215 83.1578 21.8423 89.0843 31.6989L132.903 104.573C139.03 114.764 131.72 127.703 119.822 127.703H32.184C20.2923 127.703 12.9712 114.77 19.102 104.573Z" fill="#CDDCF3"/>
<path d="M69.2476 49.4798C66.8745 51.9937 65.8836 56.041 66.2176 61.8242L67.2393 84.6254C67.3613 87.3247 70.2993 92.0889 75.9982 92.0889C81.649 92.0889 84.6405 87.3829 84.7648 84.6254L85.2077 74.7391C85.2629 73.5108 84.3116 72.4704 83.0836 72.4155C81.8496 72.3632 80.8146 73.3116 80.76 74.5399L80.3254 84.2374C79.7398 86.7424 77.6429 87.6361 75.9982 87.6361C74.357 87.6361 72.264 86.7424 71.6787 84.2374L70.6638 61.5959C70.4103 57.1995 71.0402 54.0668 72.4855 52.5357C74.1842 50.7357 78.0496 50.8643 79.6139 52.5146C81.023 54.0009 81.5872 56.9746 81.3391 61.6241L81.2257 64.1502C81.1705 65.3785 82.1215 66.4189 83.3498 66.4741C84.5781 66.5233 85.6185 65.5776 85.6734 64.3499L85.7859 61.8429C86.1068 55.8436 85.1724 51.9061 82.8455 49.4513C79.5293 45.9541 72.7203 45.8012 69.2476 49.4798Z" fill="#CDDCF3"/>
</svg>
