<svg width="517" height="66" viewBox="0 0 517 66" fill="none" xmlns="http://www.w3.org/2000/svg">
<path d="M365.458 0C388.429 0 399.915 15.3699 399.915 33C399.915 50.6301 388.429 66 365.458 66C342.486 66 331 50.6301 331 33C331 15.3699 342.486 0 365.458 0ZM365.458 15.3699C354.339 15.3699 348.459 22.874 348.459 33C348.459 43.126 354.339 50.6301 365.458 50.6301C376.576 50.6301 382.457 43.126 382.457 33C382.457 22.874 376.576 15.3699 365.458 15.3699Z" fill="url(#paint0_linear)"/>
<path d="M387.266 50.0979C384.979 50.0979 382.947 48.8523 382.947 45.9692C382.947 43.1363 384.979 41.8906 387.266 41.8906C389.593 41.8906 391.584 43.1363 391.584 45.9692C391.584 48.8523 389.593 50.0979 387.266 50.0979Z" fill="#040706"/>
<path d="M409.666 20.3228C416.139 20.3228 420.039 22.6533 420.039 27.6963C420.039 30.9008 418.477 33.0305 415.638 34.025C418.813 34.9392 421.223 37.1894 421.223 41.2278C421.223 47.8479 414.791 49.4753 409.155 49.4753H396.291V20.3228H409.666ZM409.41 37.3502H404.081V43.4278H409.41C411.779 43.4278 413.351 42.6744 413.351 40.3839C413.351 38.1036 411.779 37.3502 409.41 37.3502ZM408.951 26.3602H404.122V31.7346L408.951 31.7748C411.023 31.7748 412.208 30.7301 412.208 29.0625C412.208 27.3949 411.023 26.3602 408.951 26.3602Z" fill="#040706"/>
<path d="M421.907 49.4751L433.546 20.3125H442.01L453.649 49.4751H445.604L443.909 44.8942H431.637L429.942 49.4751H421.907ZM433.975 38.6458H441.591L438.539 30.2276C438.283 29.5244 438.028 28.8111 437.773 27.2741C437.518 28.8111 437.262 29.5244 437.007 30.2276L433.975 38.6458Z" fill="#040706"/>
<path d="M456.916 49.4753V20.3228H464.328L475.926 37.0689C475.804 35.6926 475.753 33.8643 475.753 32.2369V20.3228H483.584V49.4853H476.171L464.573 32.7794C464.696 34.1556 464.747 35.9839 464.747 37.5712V49.4853H456.916V49.4753Z" fill="#040706"/>
<path d="M489.607 49.4753V20.3228H497.438V31.3629H501.165L507.893 20.3228H516.571L507.26 34.5273L517 49.4853H508.322L501.124 38.2342H497.438V49.4853H489.607V49.4753Z" fill="#040706"/>
<path fill-rule="evenodd" clip-rule="evenodd" d="M20.1549 20.3791C20.1549 26.1053 15.6355 30.7581 10.0763 30.7581C4.51257 30.7581 0 26.11 0 20.3791C0 14.6411 4.51257 10 10.0763 10C15.6355 10 20.1549 14.6388 20.1549 20.3791ZM44.6537 20.3791C44.6537 14.6411 40.1412 10 34.5797 10C29.0205 10 24.5102 14.6411 24.5102 20.3791C24.5102 26.1053 29.0205 30.7581 34.5797 30.7581C40.1434 30.7558 44.6537 26.1076 44.6537 20.3791ZM20.1549 45.6209C20.1549 39.89 15.6355 35.2489 10.0763 35.2489C4.51257 35.2489 0 39.89 0 45.6209C0 51.3518 4.51257 56 10.0763 56C15.6355 56 20.1549 51.3542 20.1549 45.6209ZM44.6537 45.6209C44.6537 39.89 40.1412 35.2489 34.5797 35.2489C29.0205 35.2489 24.5102 39.89 24.5102 45.6209C24.5102 51.3518 29.0205 56 34.5797 56C40.1434 56 44.6537 51.3542 44.6537 45.6209ZM182.739 10.8311H167.448L167.443 55.1353H183.074C185.293 55.1353 187.313 54.8393 189.144 54.2521C190.97 53.6603 192.551 52.8077 193.869 51.685C195.182 50.5646 196.21 49.2094 196.933 47.617C197.658 46.0292 198.023 44.2089 198.023 42.1679C198.023 40.7962 197.832 39.5397 197.453 38.4005C197.068 37.2543 196.543 36.2655 195.88 35.4176C195.212 34.5791 194.448 33.8698 193.586 33.3014C192.729 32.726 191.828 32.3267 190.875 32.0871V31.9744C191.632 31.6174 192.366 31.1641 193.071 30.6145C193.775 30.0696 194.398 29.4213 194.931 28.6768C195.467 27.9252 195.884 27.0726 196.188 26.1096C196.495 25.149 196.65 24.0615 196.65 22.8401C196.65 21.0387 196.352 19.3992 195.757 17.9266C195.166 16.4516 194.29 15.188 193.123 14.1263C191.96 13.0694 190.51 12.2544 188.777 11.686C187.042 11.1176 185.026 10.8311 182.739 10.8311ZM186.205 27.6339C184.967 28.5593 183.309 29.022 181.248 29.022H176.028V18.3635H181.991C183.706 18.3635 185.151 18.7721 186.319 19.5942C187.486 20.4209 188.068 21.7527 188.068 23.6011C188.068 25.3674 187.447 26.7085 186.205 27.6339ZM187.429 45.9846C186.323 47.065 184.413 47.6029 181.704 47.6029L176.028 47.6076V36.2256H182.392C183.653 36.2256 184.7 36.3877 185.546 36.7235C186.378 37.057 187.069 37.501 187.607 38.0506C188.136 38.5978 188.521 39.2155 188.749 39.9084C188.978 40.5989 189.094 41.2942 189.094 42.0058C189.094 43.5771 188.537 44.9042 187.429 45.9846ZM219.664 51.1715L219.541 51.2153C218.169 53.0567 216.577 54.3086 214.764 54.9803C212.956 55.645 211.191 55.9762 209.481 55.9762C208.336 55.9762 207.153 55.8212 205.928 55.5088C204.708 55.1894 203.598 54.675 202.586 53.9422C201.58 53.2141 200.75 52.2652 200.125 51.0838C199.5 49.9 199.183 48.4532 199.183 46.7198C199.183 45.8954 199.3 44.9841 199.525 43.9812C199.753 42.9759 200.287 42.0247 201.128 41.1204C201.961 40.2138 203.222 39.4176 204.9 38.7294C206.574 38.0436 208.845 37.6044 211.702 37.4094L219.309 36.935V35.5187C219.309 33.7078 218.803 32.362 217.788 31.4789C216.787 30.5911 215.362 30.1542 213.528 30.1542C211.811 30.1542 210.48 30.5605 209.527 31.3708C208.573 32.1835 208.056 33.278 207.976 34.6661H200.089C200.159 33.4847 200.44 32.2704 200.912 31.035C201.393 29.7995 202.164 28.651 203.235 27.6105C204.298 26.5724 205.691 25.7127 207.406 25.0433C209.121 24.381 211.28 24.0381 213.868 24.0381C215.704 24.0381 217.423 24.2283 219.021 24.5971C220.629 24.9705 222.036 25.5507 223.265 26.3328C224.48 27.1243 225.447 28.1296 226.156 29.3674C226.865 30.5981 227.219 32.0825 227.219 33.8135V51.3562C227.219 52.1454 227.258 52.8336 227.328 53.4255C227.404 54.0197 227.495 54.5881 227.609 55.1401H219.664V51.1715ZM212.448 42.6095L219.318 41.966L219.311 44.7351C219.311 45.6418 219.074 46.4145 218.62 47.0604C218.166 47.7063 217.594 48.2395 216.905 48.6552C216.219 49.0662 215.48 49.3692 214.696 49.5665C213.921 49.7638 213.205 49.8601 212.557 49.8601C211.866 49.8601 211.216 49.8014 210.585 49.6863C209.953 49.5665 209.41 49.3692 208.954 49.0944C208.496 48.8173 208.126 48.4555 207.841 48.0022C207.554 47.5513 207.413 46.9923 207.413 46.3252C207.413 45.2237 207.775 44.3758 208.505 43.791C209.228 43.1991 210.541 42.8068 212.448 42.6095ZM249.387 36.7077C249.387 35.6038 249.245 34.6808 248.958 33.9339C248.673 33.194 248.283 32.5904 247.786 32.1394C247.291 31.6885 246.735 31.3596 246.126 31.1623C245.517 30.9674 244.883 30.8688 244.24 30.8688C242.566 30.8688 241.248 31.5288 240.295 32.8464C239.342 34.164 238.861 35.8551 238.861 37.9385V55.1336H230.641V24.8349H238.514V28.8089H238.654C239.873 26.9652 241.205 25.7039 242.658 25.0392C244.101 24.3769 245.663 24.0339 247.341 24.0339C249.095 24.0339 250.62 24.3111 251.911 24.8654C253.199 25.4079 254.278 26.1713 255.14 27.1319C255.992 28.0926 256.619 29.2129 257.023 30.4906C257.42 31.766 257.623 33.1306 257.623 34.5845V55.1406H249.393V36.7101H249.387V36.7077ZM269.051 40.2889L269.172 40.2983L277.873 55.1353H288L277.759 38.5086L287.594 24.8577L278.045 24.8342L269.172 38.1093L269.051 38.1116V10.8311H260.831V55.1353H269.051V40.2889ZM62.0767 10.8311H53.4985V55.1353H62.0767V10.8311ZM88.4088 50.9029L88.5388 50.8794L88.5411 55.1353H96.4101V10.8311H88.1854V28.9938H88.0736C86.6986 27.1101 85.2803 25.8113 83.8073 25.102C82.3366 24.395 80.6492 24.038 78.7429 24.038C76.6041 24.038 74.6978 24.4749 73.0241 25.3369C71.3458 26.1988 69.9207 27.3685 68.7624 28.8435C67.5949 30.3138 66.6987 32.0026 66.0671 33.9097C65.4401 35.8099 65.1254 37.8251 65.1254 39.9483C65.1254 42.0622 65.456 44.0939 66.1241 46.0151C66.7922 47.9411 67.7249 49.6416 68.9311 51.1119C70.1282 52.5869 71.5716 53.766 73.2476 54.6467C74.9281 55.5299 76.7956 55.9714 78.8569 55.9714C80.7632 55.9714 82.5372 55.5792 84.179 54.7924C85.8139 54.0055 87.2254 52.7137 88.4088 50.9029ZM88.0075 36.7705C88.3176 37.8274 88.4681 38.929 88.4681 40.0634C88.4681 41.3247 88.3039 42.4991 87.9847 43.5983C87.6541 44.6975 87.1775 45.6581 86.5527 46.4825C85.9234 47.3093 85.1572 47.9575 84.2656 48.4249C83.3672 48.897 82.3274 49.1343 81.1486 49.1343C79.9241 49.1343 78.8569 48.89 77.9403 48.3991C77.0236 47.9082 76.2506 47.2553 75.6258 46.4285C74.9942 45.6064 74.5222 44.6552 74.1916 43.5748C73.8701 42.4944 73.7059 41.367 73.7059 40.1879C73.7059 39.0582 73.8609 37.9449 74.1642 36.8644C74.4675 35.784 74.9304 34.8328 75.5369 34.0084C76.1503 33.1816 76.9005 32.5169 77.7943 32.0026C78.6928 31.4905 79.7325 31.2392 80.916 31.2392C82.2134 31.2392 83.3262 31.4835 84.2611 31.9744C85.196 32.4629 85.9804 33.1206 86.6074 33.945C87.2345 34.7694 87.7019 35.7112 88.0075 36.7705ZM108.11 45.0357C107.788 44.1902 107.583 43.3117 107.508 42.4004L129.02 42.3957V40.0446C129.02 37.6137 128.65 35.4059 127.907 33.4165C127.159 31.4389 126.131 29.7548 124.817 28.355C123.504 26.9645 121.919 25.8935 120.072 25.1537C118.216 24.4021 116.191 24.0286 113.977 24.0286C111.763 24.0286 109.734 24.4091 107.884 25.1537C106.033 25.8982 104.453 26.9692 103.135 28.3644C101.819 29.7619 100.79 31.4412 100.047 33.4306C99.3037 35.4082 98.9344 37.6231 98.9344 40.0564C98.9344 42.492 99.3037 44.681 100.047 46.6281C100.79 48.5729 101.819 50.2429 103.135 51.6333C104.453 53.0308 106.033 54.0995 107.884 54.8464C109.734 55.5956 111.763 55.9667 113.977 55.9667C117.445 55.9667 120.453 55.1752 122.984 53.5828C125.524 51.9903 127.284 49.6463 128.276 46.5459L120.268 45.8977C119.694 47.0791 118.884 47.974 117.837 48.5846C116.786 49.1906 115.632 49.496 114.378 49.496C113.266 49.496 112.306 49.2916 111.48 48.8759C110.666 48.4625 109.98 47.9247 109.426 47.2811C108.874 46.6281 108.436 45.8766 108.11 45.0357ZM120.213 34.7177C120.514 35.4834 120.706 36.2444 120.779 36.9866H107.508C107.624 36.1269 107.841 35.2955 108.167 34.511C108.491 33.7265 108.935 33.0407 109.512 32.4512C110.085 31.864 110.769 31.3966 111.569 31.0419C112.369 30.6873 113.304 30.5088 114.376 30.5088C115.361 30.5088 116.239 30.7084 117.001 31.1007C117.767 31.4882 118.412 31.9955 118.948 32.6273C119.484 33.2568 119.903 33.9544 120.213 34.7177ZM151.241 51.2152L151.366 51.1706L151.371 55.1353H159.313C159.201 54.5833 159.105 54.0149 159.032 53.4207C158.961 52.8288 158.925 52.1406 158.925 51.3515V33.8087C158.925 32.0777 158.569 30.5933 157.86 29.3626C157.151 28.1248 156.189 27.1195 154.964 26.328C153.742 25.5459 152.333 24.9658 150.725 24.5923C149.124 24.2236 147.41 24.0333 145.576 24.0333C142.982 24.0333 140.829 24.3762 139.114 25.0386C137.395 25.708 136.006 26.5676 134.937 27.6057C133.865 28.6462 133.097 29.7948 132.62 31.0302C132.144 32.2656 131.865 33.4799 131.79 34.6613H139.68C139.76 33.2732 140.273 32.1787 141.226 31.3661C142.179 30.5557 143.513 30.1494 145.23 30.1494C147.061 30.1494 148.481 30.5886 149.489 31.4788C150.499 32.3619 151.003 33.7077 151.003 35.5186V36.9349L143.401 37.4094C140.542 37.6043 138.273 38.0435 136.601 38.7293C134.919 39.4175 133.662 40.2137 132.821 41.1204C131.982 42.0246 131.45 42.9759 131.222 43.9811C130.997 44.984 130.88 45.8953 130.88 46.7197C130.88 48.4531 131.197 49.8999 131.822 51.0837C132.451 52.2651 133.272 53.214 134.282 53.9421C135.295 54.6749 136.408 55.1893 137.628 55.5087C138.847 55.8211 140.033 55.9761 141.173 55.9761C142.893 55.9761 144.651 55.645 146.461 54.9803C148.272 54.3085 149.863 53.0566 151.241 51.2152ZM144.147 42.6095L151.01 41.9659L151.008 44.7351C151.008 45.6417 150.778 46.4144 150.319 47.0603C149.863 47.7062 149.293 48.2394 148.6 48.6551C147.916 49.0661 147.179 49.3691 146.402 49.5664C145.622 49.7637 144.906 49.86 144.256 49.86C143.574 49.86 142.915 49.8013 142.286 49.6862C141.652 49.5664 141.107 49.3691 140.653 49.0943C140.195 48.8172 139.823 48.4555 139.538 48.0022C139.251 47.5512 139.11 46.9922 139.11 46.3252C139.11 45.2236 139.472 44.3757 140.197 43.7909C140.92 43.199 142.24 42.8068 144.147 42.6095Z" fill="url(#paint1_linear)"/>
<rect x="308" y="6" width="3" height="54" fill="#2B2A29"/>
<defs>
<linearGradient id="paint0_linear" x1="340.78" y1="8.71893" x2="389.337" y2="58.0687" gradientUnits="userSpaceOnUse">
<stop stop-color="#5A308D"/>
<stop offset="0.0706" stop-color="#42338C"/>
<stop offset="0.6638" stop-color="#CC2D78"/>
<stop offset="1" stop-color="#E9AF30"/>
</linearGradient>
<linearGradient id="paint1_linear" x1="0" y1="33" x2="288" y2="33" gradientUnits="userSpaceOnUse">
<stop stop-color="#0093D4"/>
<stop offset="0.604167" stop-color="#2B2A29"/>
</linearGradient>
</defs>
</svg>
