<svg width="94" height="34" viewBox="0 0 94 34" fill="none" xmlns="http://www.w3.org/2000/svg">
<path d="M17.4141 0C29.0235 0 34.8282 7.91781 34.8282 17C34.8282 26.0822 29.0235 34 17.4141 34C5.8047 34 0 26.0822 0 17C0 7.91781 5.8047 0 17.4141 0ZM17.4141 7.91781C11.7951 7.91781 8.82314 11.7836 8.82314 17C8.82314 22.2164 11.7951 26.0822 17.4141 26.0822C23.033 26.0822 26.0051 22.2164 26.0051 17C26.0051 11.7836 23.033 7.91781 17.4141 7.91781Z" fill="url(#paint0_linear)"/>
<path d="M28.4353 25.8076C27.2795 25.8076 26.2527 25.1659 26.2527 23.6807C26.2527 22.2213 27.2795 21.5796 28.4353 21.5796C29.6117 21.5796 30.6178 22.2213 30.6178 23.6807C30.6178 25.1659 29.6117 25.8076 28.4353 25.8076Z" fill="#040706"/>
<path d="M39.7557 10.4692C43.027 10.4692 44.998 11.6698 44.998 14.2677C44.998 15.9186 44.2086 17.0157 42.7742 17.528C44.3789 17.9989 45.5965 19.1581 45.5965 21.2385C45.5965 24.6488 42.3459 25.4872 39.4977 25.4872H32.9965V10.4692H39.7557ZM39.6267 19.2409H36.9334V22.3718H39.6267C40.8238 22.3718 41.6184 21.9837 41.6184 20.8038C41.6184 19.6291 40.8238 19.2409 39.6267 19.2409ZM39.3945 13.5794H36.954V16.3481L39.3945 16.3688C40.442 16.3688 41.0405 15.8306 41.0405 14.9715C41.0405 14.1125 40.442 13.5794 39.3945 13.5794Z" fill="#040706"/>
<path d="M45.9422 25.487L51.8243 10.4639H56.1017L61.9838 25.487H57.918L57.0614 23.1272H50.8594L50.0029 25.487H45.9422ZM52.041 19.9083H55.8902L54.3474 15.5716C54.2184 15.2094 54.0894 14.8419 53.9604 14.0502C53.8315 14.8419 53.7025 15.2094 53.5735 15.5716L52.041 19.9083Z" fill="#040706"/>
<path d="M63.6349 25.4872V10.4692H67.3809L73.2424 19.096C73.1805 18.387 73.1547 17.4452 73.1547 16.6068V10.4692H77.1122V25.4924H73.3662L67.5047 16.8863C67.5667 17.5953 67.5925 18.5371 67.5925 19.3548V25.4924H63.6349V25.4872Z" fill="#040706"/>
<path d="M80.1564 25.4872V10.4692H84.1139V16.1566H85.9972L89.3975 10.4692H93.7833L89.0776 17.7867L94 25.4924H89.6142L85.9766 19.6963H84.1139V25.4924H80.1564V25.4872Z" fill="#040706"/>
<defs>
<linearGradient id="paint0_linear" x1="4.94277" y1="4.49157" x2="29.9601" y2="29.435" gradientUnits="userSpaceOnUse">
<stop stop-color="#5A308D"/>
<stop offset="0.0706" stop-color="#42338C"/>
<stop offset="0.6638" stop-color="#CC2D78"/>
<stop offset="1" stop-color="#E9AF30"/>
</linearGradient>
</defs>
</svg>
