<svg width="50" height="50" viewBox="0 0 50 50" fill="none" xmlns="http://www.w3.org/2000/svg">
<path d="M0 25C0 38.8071 11.1929 50 25 50C38.8071 50 50 38.8071 50 25C50 11.1929 38.8071 0 25 0C11.1929 0 0 11.1929 0 25Z" fill="#61A8DE"/>
<path d="M36.0314 13.7368L9.70259 24.6334C8.84979 24.9864 8.90146 26.2861 9.77931 26.5614L16.4697 28.6596L18.9666 37.074C19.2274 37.9529 20.2762 38.2194 20.8833 37.561L24.3424 33.8099L31.1295 39.1009C31.9601 39.7485 33.143 39.2674 33.3539 38.1963L37.8491 15.3716C38.0692 14.2535 37.0335 13.3221 36.0314 13.7368ZM32.7305 18.8022L20.5009 30.2878C20.379 30.4023 20.3014 30.5607 20.2833 30.7325L19.8124 35.1778C19.797 35.3228 19.606 35.342 19.5652 35.2027L17.628 28.5732C17.5393 28.2696 17.655 27.9408 17.9092 27.7733L32.3511 18.2606C32.6832 18.0417 33.0233 18.5273 32.7305 18.8022Z" fill="white"/>
</svg>
