<svg width="50" height="50" viewBox="0 0 50 50" fill="none" xmlns="http://www.w3.org/2000/svg">
<path d="M0 25C0 38.8071 11.1929 50 25 50C38.8071 50 50 38.8071 50 25C50 11.1929 38.8071 0 25 0C11.1929 0 0 11.1929 0 25Z" fill="#7D3DAF"/>
<path d="M39.7024 16.7404L39.6933 16.7036C38.9506 13.7014 35.6025 10.4797 32.5278 9.80951L32.4931 9.80237C27.5199 8.85364 22.4773 8.85364 17.5051 9.80237L17.4694 9.80951C14.3957 10.4797 11.0476 13.7014 10.3039 16.7036L10.2958 16.7404C9.37765 20.9332 9.37765 25.1851 10.2958 29.3779L10.3039 29.4146C11.0159 32.2888 14.1147 35.3624 17.0746 36.2077V39.5591C17.0746 40.772 18.5528 41.3678 19.3934 40.4925L22.789 36.9629C23.5254 37.0041 24.2623 37.0271 24.9991 37.0271C27.5025 37.0271 30.007 36.7904 32.4931 36.316L32.5278 36.3089C35.6025 35.6386 38.9506 32.417 39.6933 29.4147L39.7024 29.378C40.6206 25.1851 40.6206 20.9332 39.7024 16.7404ZM37.0154 28.7699C36.5196 30.7286 33.9774 33.1637 31.9575 33.6136C29.3132 34.1164 26.648 34.3313 23.9854 34.2576C23.9324 34.2561 23.8815 34.2766 23.8446 34.3146C23.4668 34.7025 21.3654 36.8597 21.3654 36.8597L18.7283 39.5661C18.5355 39.7671 18.1968 39.6304 18.1968 39.3529V33.8011C18.1968 33.7093 18.1313 33.6314 18.0412 33.6138C18.0407 33.6137 18.0402 33.6136 18.0397 33.6135C16.0198 33.1636 13.4786 30.7285 12.9818 28.7698C12.1555 24.98 12.1555 21.1381 12.9818 17.3483C13.4786 15.3896 16.0198 12.9545 18.0397 12.5046C22.6579 11.6263 27.3403 11.6263 31.9575 12.5046C33.9784 12.9545 36.5196 15.3896 37.0154 17.3483C37.8426 21.1382 37.8426 24.9801 37.0154 28.7699Z" fill="white"/>
<path d="M29.3936 31.3325C29.0831 31.2382 28.7871 31.1749 28.5123 31.0608C25.6645 29.8793 23.0435 28.355 20.9674 26.0184C19.7868 24.6896 18.8628 23.1895 18.0816 21.602C17.7112 20.8491 17.3991 20.0667 17.0809 19.2895C16.7907 18.5807 17.2181 17.8484 17.6681 17.3144C18.0903 16.8132 18.6336 16.4296 19.2221 16.1469C19.6813 15.9263 20.1344 16.0535 20.4698 16.4428C21.1949 17.2844 21.861 18.1691 22.4003 19.1446C22.732 19.7447 22.641 20.4782 22.0399 20.8865C21.8938 20.9858 21.7607 21.1023 21.6246 21.2144C21.5052 21.3127 21.3929 21.4119 21.3111 21.5449C21.1616 21.7883 21.1544 22.0754 21.2507 22.34C21.992 24.3771 23.2413 25.961 25.2916 26.8142C25.6197 26.9507 25.9492 27.1096 26.3272 27.0656C26.9602 26.9916 27.1651 26.2973 27.6087 25.9345C28.0422 25.58 28.5963 25.5753 29.0633 25.8709C29.5304 26.1665 29.9833 26.4839 30.4333 26.8046C30.8752 27.1194 31.3151 27.4274 31.7226 27.7863C32.1144 28.1314 32.2494 28.5841 32.0287 29.0525C31.6248 29.9102 31.037 30.6238 30.189 31.0793C29.9496 31.2077 29.6636 31.2494 29.3936 31.3325C29.0831 31.2381 29.6636 31.2494 29.3936 31.3325Z" fill="white"/>
<path d="M25.007 15.1661C28.7321 15.2705 31.7916 17.7426 32.4472 21.4253C32.559 22.0528 32.5987 22.6944 32.6484 23.3312C32.6693 23.5991 32.5176 23.8536 32.2285 23.8571C31.9299 23.8607 31.7956 23.6109 31.7762 23.3431C31.7378 22.813 31.7112 22.2806 31.6382 21.7549C31.2526 18.98 29.0399 16.6843 26.2778 16.1917C25.8622 16.1175 25.4368 16.098 25.0158 16.0538C24.7496 16.0259 24.4011 16.0098 24.3421 15.6789C24.2926 15.4016 24.5267 15.1807 24.7909 15.1665C24.8627 15.1625 24.9349 15.1658 25.007 15.1661C28.7321 15.2705 24.9349 15.1658 25.007 15.1661Z" fill="white"/>
<path d="M30.6689 22.5049C30.6628 22.5515 30.6595 22.6608 30.6323 22.7639C30.5334 23.1378 29.9664 23.1847 29.8358 22.8072C29.7972 22.6952 29.7913 22.5678 29.7911 22.4472C29.7898 21.6582 29.6183 20.8701 29.2205 20.1836C28.8115 19.4781 28.1867 18.885 27.4538 18.5261C27.0106 18.3091 26.5314 18.1742 26.0457 18.0938C25.8334 18.0588 25.6189 18.0374 25.4055 18.0077C25.147 17.9718 25.009 17.8071 25.0213 17.5524C25.0327 17.3136 25.2071 17.1419 25.4673 17.1566C26.3221 17.2052 27.1478 17.3899 27.9079 17.7924C29.4534 18.6109 30.3362 19.9028 30.5939 21.6278C30.6055 21.706 30.6243 21.7834 30.6302 21.8618C30.6448 22.0556 30.654 22.2495 30.6689 22.5049C30.6628 22.5515 30.654 22.2495 30.6689 22.5049Z" fill="white"/>
<path d="M28.3512 22.4146C28.0396 22.4202 27.8728 22.2477 27.8407 21.9619C27.8183 21.7627 27.8007 21.5608 27.7531 21.367C27.6595 20.9853 27.4566 20.6315 27.1354 20.3976C26.9838 20.2871 26.812 20.2066 26.6321 20.1547C26.4035 20.0887 26.1661 20.1068 25.938 20.0509C25.6903 19.9902 25.5533 19.7897 25.5923 19.5573C25.6277 19.3458 25.8334 19.1807 26.0645 19.1975C27.5087 19.3017 28.5409 20.0484 28.6882 21.7485C28.6986 21.8685 28.7108 21.9953 28.6842 22.1101C28.6386 22.3065 28.4931 22.405 28.3512 22.4146C28.0396 22.4202 28.4931 22.405 28.3512 22.4146Z" fill="white"/>
</svg>
